<?xml version="1.0" encoding="iso-8859-1"?>
<!-- Generator: Adobe Illustrator 19.0.0, SVG Export Plug-In . SVG Version: 6.00 Build 0)  -->
<svg version="1.1" id="Layer_1" xmlns="http://www.w3.org/2000/svg" xmlns:xlink="http://www.w3.org/1999/xlink" x="0px" y="0px"
	 viewBox="0 0 297.001 297.001" style="enable-background:new 0 0 297.001 297.001;" xml:space="preserve">
<g>
	<g>
		<circle style="fill:#ECA684;" cx="148.5" cy="148.5" r="148.5"/>
	</g>
	<path style="fill:#D18F75;" d="M296.977,146.673L187.385,37.057L89.822,240.505l56.467,56.467c0.737,0.011,1.472,0.028,2.212,0.028
		c82.014,0,148.5-66.486,148.5-148.5C297,147.889,296.984,147.282,296.977,146.673z"/>
	<path style="fill:#79302A;" d="M114.791,68h67.417c4.165,0,7.542-3.376,7.542-7.542V42.542c0-4.165-3.376-7.542-7.542-7.542
		h-67.417c-4.165,0-7.541,3.376-7.541,7.542v17.917C107.25,64.624,110.626,68,114.791,68z"/>
	<path style="fill:#662621;" d="M182.208,35h-34.042v33h34.042c4.165,0,7.542-3.376,7.542-7.542V42.542
		C189.75,38.376,186.374,35,182.208,35z"/>
	<path style="fill:#FFFFFF;" d="M106.916,247.5h83.167c13.485,0,24.417-10.932,24.417-24.417V90.416
		C214.5,76.932,203.568,66,190.083,66h-83.167C93.432,66,82.5,76.932,82.5,90.416v132.667C82.5,236.568,93.432,247.5,106.916,247.5z
		"/>
	<path style="fill:#EDECEB;" d="M190.083,66h-41.917v181.5h41.917c13.485,0,24.417-10.932,24.417-24.417V90.417
		C214.5,76.932,203.568,66,190.083,66z"/>
	<rect x="82.5" y="115.5" style="fill:#D95459;" width="132" height="82.5"/>
	<rect x="148.167" y="115.5" style="fill:#E04332;" width="66.333" height="82.5"/>
	<polygon style="fill:#FFFFFF;" points="167.5,150.417 154.833,150.417 154.833,137.75 142.167,137.75 142.167,150.417 
		129.5,150.417 129.5,163.083 142.167,163.083 142.167,175.75 154.833,175.75 154.833,163.083 167.5,163.083 	"/>
	<polygon style="fill:#EDECEB;" points="154.833,150.417 154.833,137.75 148.167,137.75 148.167,175.75 154.833,175.75 
		154.833,163.083 167.5,163.083 167.5,150.417 	"/>
</g>
<g>
</g>
<g>
</g>
<g>
</g>
<g>
</g>
<g>
</g>
<g>
</g>
<g>
</g>
<g>
</g>
<g>
</g>
<g>
</g>
<g>
</g>
<g>
</g>
<g>
</g>
<g>
</g>
<g>
</g>
</svg>
